<svg xmlns="http://www.w3.org/2000/svg" viewBox="0 0 500 500"><g id="freepik--Floor--inject-2"><ellipse id="freepik--floor--inject-2" cx="250" cy="322.51" rx="238.19" ry="137.52" style="fill:#f0f0f0"></ellipse></g><g id="freepik--Shadows--inject-2"><polygon id="freepik--Shadow--inject-2" points="103.76 346.49 22.52 299.58 128.13 238.61 209.37 285.51 103.76 346.49" style="fill:#e0e0e0"></polygon><polygon id="freepik--shadow--inject-2" points="267.18 311.31 149.38 379.32 230.62 426.23 348.42 358.21 267.18 311.31" style="fill:#e0e0e0"></polygon><ellipse id="freepik--shadow--inject-2" cx="401.29" cy="341.56" rx="58.47" ry="33.76" style="fill:#e0e0e0"></ellipse></g><g id="freepik--Plants--inject-2"><g id="freepik--plants--inject-2"><path d="M421.94,315.19s-.72-13.31,4.06-24.54,12.63-19.06,20.85-21.13,16.23,4.46,8.21,11.22-22.94,14.82-26.89,35.72Z" style="fill:#42A5F5"></path><path d="M421.94,315.19s-.72-13.31,4.06-24.54,12.63-19.06,20.85-21.13,16.23,4.46,8.21,11.22-22.94,14.82-26.89,35.72Z" style="opacity:0.15"></path><path d="M423.81,311.39h-.09a.46.46,0,0,1-.35-.54c5.13-23.13,20.33-35,27.65-38a.46.46,0,0,1,.59.25.45.45,0,0,1-.24.59c-7.17,3-22.07,14.63-27.12,37.39A.44.44,0,0,1,423.81,311.39Z" style="fill:#fff"></path><path d="M425.12,322.36c-.13-1.07-.23-2.15-.37-3.21-.1-.76-.39-1.45-.48-2.23a8.29,8.29,0,0,1,.66-5.06,13,13,0,0,1,2.83-3.13,12.86,12.86,0,0,0,2.81-3.13c.46-.81.73-1.7,1.13-2.54a9.61,9.61,0,0,1,7.12-5.21,11.1,11.1,0,0,1,4.59.16,13.6,13.6,0,0,0,5.21.65c2.58-.42,5-1.4,7.71-1.51a9.3,9.3,0,0,1,7.6,2.92,4.91,4.91,0,0,1,1.18,4.49c-.53,1.7-2.2,2.74-3.77,3.59s-3.26,1.76-4,3.39c-1.44,3.28,2,7.29.41,10.51a5.58,5.58,0,0,1-3.53,2.62,37.27,37.27,0,0,1-3.67.75,13.29,13.29,0,0,1-1.78.06,8.07,8.07,0,0,0-5,1.13c-2.3,1.65-2.7,4.84-3.92,7.39a11.71,11.71,0,0,1-7.67,6.12c-2.74.69-7,.54-7.84-.61-.65-.88.66-3.88.57-5a44.16,44.16,0,0,1,.11-8.37A15.7,15.7,0,0,0,425.12,322.36Z" style="fill:#42A5F5"></path><path d="M425.84,332.35h0a.4.4,0,0,1-.33-.46c3.7-24.9,28.77-31.28,34.77-31.53a.4.4,0,0,1,.42.38.4.4,0,0,1-.38.42c-5.88.24-30.4,6.49-34,30.85A.4.4,0,0,1,425.84,332.35Z" style="fill:#fff"></path><path d="M452.74,316.89a.31.31,0,0,1-.22-.09,21.34,21.34,0,0,0-17.89-2.91.4.4,0,0,1-.2-.78A22.13,22.13,0,0,1,453,316.18a.4.4,0,0,1,.06.56A.38.38,0,0,1,452.74,316.89Z" style="fill:#fff"></path></g></g><g id="freepik--Documents--inject-2"><g id="freepik--Copies--inject-2"><g id="freepik--Document--inject-2"><path d="M44.55,308.13a4.24,4.24,0,0,1-1.84-3.34V139.53a4.34,4.34,0,0,1,2-3.4l97.62-56.3A3.69,3.69,0,0,1,148,83.09V248.35a4.36,4.36,0,0,1-2,3.41l-97.63,56.3A4.23,4.23,0,0,1,44.55,308.13Z" style="fill:#fafafa"></path><path d="M48.36,308.06,146,251.76a4.36,4.36,0,0,0,2-3.41V83.09c0-1.25-.88-1.76-2-1.13l-97.62,56.3a4.36,4.36,0,0,0-2,3.4V306.92C46.4,308.18,47.28,308.68,48.36,308.06Z" style="fill:#f5f5f5"></path><path d="M48.11,308.19a4.19,4.19,0,0,1-3.55-.06,4.21,4.21,0,0,1-1.84-3.33V139.54a4.08,4.08,0,0,1,.57-1.94L47,139.73a4,4,0,0,0-.58,1.93V306.93C46.4,308.08,47.15,308.6,48.11,308.19Z" style="fill:#ebebeb"></path><path d="M100.46,121l32.31-18.7c1-.55,1.73-.1,1.73,1V104a3.81,3.81,0,0,1-1.73,3l-32.31,18.7c-1,.55-1.73.1-1.73-1V124A3.83,3.83,0,0,1,100.46,121Z" style="fill:#e0e0e0"></path><path d="M100.46,132.67,132.77,114c1-.55,1.73-.1,1.73,1v.69a3.81,3.81,0,0,1-1.73,3l-32.31,18.7c-1,.55-1.73.11-1.73-1v-.69A3.85,3.85,0,0,1,100.46,132.67Z" style="fill:#e0e0e0"></path><path d="M100.46,144.38l32.31-18.69c1-.56,1.73-.11,1.73,1v.69a3.84,3.84,0,0,1-1.73,3l-32.31,18.69c-1,.56-1.73.11-1.73-1v-.69A3.86,3.86,0,0,1,100.46,144.38Z" style="fill:#e0e0e0"></path><path d="M100.46,156.1l32.31-18.7c1-.55,1.73-.11,1.73,1v.69a3.82,3.82,0,0,1-1.73,3l-32.31,18.7c-1,.55-1.73.1-1.73-1v-.69A3.83,3.83,0,0,1,100.46,156.1Z" style="fill:#e0e0e0"></path><path d="M59.06,191.67l73.71-42.56c1-.55,1.73-.1,1.73,1v.69a3.81,3.81,0,0,1-1.73,3L59.06,196.36c-1,.55-1.73.11-1.73-1v-.69A3.82,3.82,0,0,1,59.06,191.67Z" style="fill:#e0e0e0"></path><path d="M59.06,203.47l73.71-42.56c1-.55,1.73-.11,1.73,1v.69a3.82,3.82,0,0,1-1.73,3L59.06,208.16c-1,.55-1.73.1-1.73-1v-.69A3.81,3.81,0,0,1,59.06,203.47Z" style="fill:#e0e0e0"></path><path d="M59.06,215.18l73.71-42.56c1-.55,1.73-.1,1.73,1v.69a3.81,3.81,0,0,1-1.73,3L59.06,219.87c-1,.55-1.73.11-1.73-1v-.69A3.82,3.82,0,0,1,59.06,215.18Z" style="fill:#e0e0e0"></path><path d="M59.06,226.89l73.71-42.56c1-.55,1.73-.1,1.73,1V186a3.81,3.81,0,0,1-1.73,3L59.06,231.58c-1,.56-1.73.11-1.73-1v-.69A3.84,3.84,0,0,1,59.06,226.89Z" style="fill:#e0e0e0"></path><path d="M59.06,238.61l73.71-42.56c1-.56,1.73-.11,1.73,1v.69a3.84,3.84,0,0,1-1.73,3L59.06,243.3c-1,.55-1.73.1-1.73-1v-.69A3.81,3.81,0,0,1,59.06,238.61Z" style="fill:#e0e0e0"></path><path d="M59.06,250.32l73.71-42.56c1-.55,1.73-.11,1.73,1v.69a3.82,3.82,0,0,1-1.73,3L59.06,255c-1,.55-1.73.1-1.73-1v-.69A3.81,3.81,0,0,1,59.06,250.32Z" style="fill:#e0e0e0"></path><path d="M59.06,262.08l73.71-42.56c1-.55,1.73-.1,1.73,1v.69a3.81,3.81,0,0,1-1.73,3L59.06,266.77c-1,.56-1.73.11-1.73-1v-.69A3.82,3.82,0,0,1,59.06,262.08Z" style="fill:#e0e0e0"></path><path d="M59.06,273.79l73.71-42.55c1-.56,1.73-.11,1.73,1v.69a3.84,3.84,0,0,1-1.73,3L59.06,278.49c-1,.55-1.73.1-1.73-1v-.7A3.84,3.84,0,0,1,59.06,273.79Z" style="fill:#e0e0e0"></path><path d="M59.06,285.51,132.77,243c1-.55,1.73-.11,1.73,1v.69a3.82,3.82,0,0,1-1.73,3L59.06,290.2c-1,.55-1.73.1-1.73-1v-.69A3.81,3.81,0,0,1,59.06,285.51Z" style="fill:#e0e0e0"></path><g style="opacity:0.30000000000000004"><polygon points="57.79 145.86 93.33 125.33 93.34 166.38 57.79 186.91 57.79 145.86"></polygon></g><path d="M63.12,150v12.32l1.11-.66v-3.78a7.86,7.86,0,0,1,3.79-6l5.26-3v18.3a7.87,7.87,0,0,1-3.3,6.28l-3.31,1.91v1.31l17.78-10.27v-1.3l-3.3,1.9c-1.83,1.06-3.31,0-3.31-2.47v-18.3l5.26-3c2.09-1.21,3.79-.5,3.79,1.58v3.77l1.11-.62V135.6Z" style="fill:#fafafa"></path></g><g id="freepik--document--inject-2"><path d="M73,324.54a4.22,4.22,0,0,1-1.85-3.33V155.94a4.34,4.34,0,0,1,2-3.4l97.62-56.3a3.69,3.69,0,0,1,5.65,3.26V264.76a4.36,4.36,0,0,1-2,3.41l-97.62,56.3A4.23,4.23,0,0,1,73,324.54Z" style="fill:#fafafa"></path><path d="M76.81,324.47l97.62-56.3a4.36,4.36,0,0,0,2-3.41V99.5c0-1.25-.88-1.76-2-1.13L76.8,154.67a4.36,4.36,0,0,0-2,3.4V323.33C74.84,324.59,75.72,325.09,76.81,324.47Z" style="fill:#f5f5f5"></path><path d="M76.55,324.6a3.67,3.67,0,0,1-5.39-3.39V156a4.08,4.08,0,0,1,.57-1.94l3.69,2.13a4,4,0,0,0-.58,1.93V323.34C74.84,324.49,75.59,325,76.55,324.6Z" style="fill:#ebebeb"></path><path d="M128.91,137.37l32.31-18.7c.95-.55,1.73-.1,1.73,1v.69a3.83,3.83,0,0,1-1.73,3l-32.32,18.7c-1,.55-1.73.1-1.73-1v-.69A3.83,3.83,0,0,1,128.91,137.37Z" style="fill:#e0e0e0"></path><path d="M128.91,149.08l32.31-18.7c.95-.55,1.73-.1,1.73,1v.69a3.83,3.83,0,0,1-1.73,3l-32.32,18.7c-1,.55-1.73.11-1.73-1v-.69A3.83,3.83,0,0,1,128.91,149.08Z" style="fill:#e0e0e0"></path><path d="M128.91,160.79l32.31-18.69c.95-.56,1.73-.11,1.73,1v.69a3.86,3.86,0,0,1-1.73,3l-32.32,18.7c-1,.55-1.73.1-1.73-1v-.7A3.85,3.85,0,0,1,128.91,160.79Z" style="fill:#e0e0e0"></path><path d="M128.91,172.51l32.31-18.7c.95-.55,1.73-.11,1.73,1v.69a3.85,3.85,0,0,1-1.73,3L128.9,177.2c-1,.55-1.73.1-1.73-1v-.69A3.82,3.82,0,0,1,128.91,172.51Z" style="fill:#e0e0e0"></path><path d="M87.5,208.08l73.72-42.56c.95-.55,1.73-.1,1.73,1v.69a3.83,3.83,0,0,1-1.73,3L87.5,212.77c-1,.55-1.73.11-1.73-1v-.69A3.85,3.85,0,0,1,87.5,208.08Z" style="fill:#e0e0e0"></path><path d="M87.5,219.88l73.72-42.56c.95-.55,1.73-.1,1.73,1V179a3.85,3.85,0,0,1-1.73,3L87.5,224.57c-1,.55-1.73.1-1.73-1v-.69A3.83,3.83,0,0,1,87.5,219.88Z" style="fill:#e0e0e0"></path><path d="M87.5,231.59,161.22,189c.95-.55,1.73-.1,1.73,1v.69a3.83,3.83,0,0,1-1.73,3L87.5,236.28c-1,.55-1.73.11-1.73-1v-.69A3.85,3.85,0,0,1,87.5,231.59Z" style="fill:#e0e0e0"></path><path d="M87.5,243.3l73.72-42.56c.95-.55,1.73-.1,1.73,1v.7a3.86,3.86,0,0,1-1.73,3L87.5,248c-1,.56-1.73.11-1.73-1v-.69A3.86,3.86,0,0,1,87.5,243.3Z" style="fill:#e0e0e0"></path><path d="M87.5,255l73.72-42.56c.95-.56,1.73-.11,1.73,1v.69a3.85,3.85,0,0,1-1.73,3L87.5,259.71c-1,.55-1.73.1-1.73-1V258A3.83,3.83,0,0,1,87.5,255Z" style="fill:#e0e0e0"></path><path d="M87.5,266.73l73.72-42.56c.95-.55,1.73-.1,1.73,1v.69a3.85,3.85,0,0,1-1.73,3L87.5,271.42c-1,.55-1.73.1-1.73-1v-.69A3.83,3.83,0,0,1,87.5,266.73Z" style="fill:#e0e0e0"></path><path d="M87.5,278.49l73.72-42.56c.95-.55,1.73-.1,1.73,1v.69a3.83,3.83,0,0,1-1.73,3L87.5,283.18c-1,.56-1.73.11-1.73-1v-.69A3.86,3.86,0,0,1,87.5,278.49Z" style="fill:#e0e0e0"></path><path d="M87.5,290.21l73.72-42.56c.95-.56,1.73-.11,1.73,1v.69a3.86,3.86,0,0,1-1.73,3L87.5,294.9c-1,.55-1.73.1-1.73-1v-.69A3.83,3.83,0,0,1,87.5,290.21Z" style="fill:#e0e0e0"></path><path d="M87.5,301.92l73.72-42.56c.95-.55,1.73-.11,1.73,1v.69a3.85,3.85,0,0,1-1.73,3L87.5,306.61c-1,.55-1.73.1-1.73-1v-.69A3.83,3.83,0,0,1,87.5,301.92Z" style="fill:#e0e0e0"></path><g style="opacity:0.30000000000000004"><polygon points="86.23 162.27 121.78 141.75 121.78 182.79 86.23 203.32 86.23 162.27"></polygon></g><path d="M91.56,166.38v12.31l1.12-.66v-3.78a7.85,7.85,0,0,1,3.78-6l5.26-3v18.3a7.87,7.87,0,0,1-3.3,6.28l-3.3,1.91v1.31l17.77-10.27v-1.3l-3.3,1.9c-1.82,1.06-3.3,0-3.3-2.47v-18.3l5.25-3c2.1-1.21,3.79-.5,3.79,1.58v3.77l1.12-.62V152Z" style="fill:#fafafa"></path></g><g id="freepik--document--inject-2"><path d="M101.44,341a4.22,4.22,0,0,1-1.85-3.33V172.36a4.34,4.34,0,0,1,2-3.41l97.62-56.3a3.69,3.69,0,0,1,5.65,3.26V281.17a4.36,4.36,0,0,1-2,3.41l-97.62,56.3A4.2,4.2,0,0,1,101.44,341Z" style="fill:#fafafa"></path><path d="M105.25,340.88l97.62-56.3a4.36,4.36,0,0,0,2-3.41V115.91c0-1.25-.88-1.76-2-1.13l-97.63,56.3a4.36,4.36,0,0,0-2,3.4V339.74C103.28,341,104.16,341.51,105.25,340.88Z" style="fill:#f5f5f5"></path><path d="M105,341a3.67,3.67,0,0,1-5.39-3.39V172.36a4.08,4.08,0,0,1,.57-1.94l3.69,2.13a4,4,0,0,0-.58,1.93V339.75C103.28,340.9,104,341.42,105,341Z" style="fill:#ebebeb"></path><path d="M157.35,153.78l32.31-18.7c1-.55,1.73-.1,1.73,1v.69a3.83,3.83,0,0,1-1.73,3l-32.31,18.7c-1,.55-1.74.11-1.74-1v-.69A3.83,3.83,0,0,1,157.35,153.78Z" style="fill:#e0e0e0"></path><path d="M157.35,165.49l32.31-18.69c1-.56,1.73-.11,1.73,1v.69a3.86,3.86,0,0,1-1.73,3l-32.31,18.69c-1,.56-1.74.11-1.74-1v-.69A3.85,3.85,0,0,1,157.35,165.49Z" style="fill:#e0e0e0"></path><path d="M157.35,177.21l32.31-18.7c1-.55,1.73-.11,1.73,1v.69a3.85,3.85,0,0,1-1.73,3l-32.31,18.7c-1,.55-1.74.1-1.74-1v-.69A3.82,3.82,0,0,1,157.35,177.21Z" style="fill:#e0e0e0"></path><path d="M157.35,188.92l32.31-18.7c1-.55,1.73-.1,1.73,1v.69a3.83,3.83,0,0,1-1.73,3l-32.31,18.7c-1,.55-1.74.1-1.74-1v-.69A3.82,3.82,0,0,1,157.35,188.92Z" style="fill:#e0e0e0"></path><path d="M115.94,224.49l73.72-42.56c1-.55,1.73-.1,1.73,1v.69a3.83,3.83,0,0,1-1.73,3l-73.72,42.56c-1,.55-1.73.11-1.73-1v-.69A3.85,3.85,0,0,1,115.94,224.49Z" style="fill:#e0e0e0"></path><path d="M115.94,236.29l73.72-42.56c1-.55,1.73-.1,1.73,1v.69a3.83,3.83,0,0,1-1.73,3L115.94,241c-1,.55-1.73.11-1.73-1v-.69A3.85,3.85,0,0,1,115.94,236.29Z" style="fill:#e0e0e0"></path><path d="M115.94,248l73.72-42.56c1-.55,1.73-.1,1.73,1v.69a3.83,3.83,0,0,1-1.73,3l-73.72,42.56c-1,.56-1.73.11-1.73-1V251A3.86,3.86,0,0,1,115.94,248Z" style="fill:#e0e0e0"></path><path d="M115.94,259.72l73.72-42.56c1-.56,1.73-.11,1.73,1v.69a3.86,3.86,0,0,1-1.73,3l-73.72,42.56c-1,.55-1.73.1-1.73-1v-.69A3.83,3.83,0,0,1,115.94,259.72Z" style="fill:#e0e0e0"></path><path d="M115.94,271.43l73.72-42.56c1-.55,1.73-.11,1.73,1v.69a3.85,3.85,0,0,1-1.73,3l-73.72,42.56c-1,.55-1.73.1-1.73-1v-.69A3.83,3.83,0,0,1,115.94,271.43Z" style="fill:#e0e0e0"></path><path d="M115.94,283.14l73.72-42.56c1-.55,1.73-.1,1.73,1v.69a3.83,3.83,0,0,1-1.73,3l-73.72,42.56c-1,.55-1.73.11-1.73-1v-.69A3.85,3.85,0,0,1,115.94,283.14Z" style="fill:#e0e0e0"></path><path d="M115.94,294.9l73.72-42.56c1-.55,1.73-.1,1.73,1v.7a3.86,3.86,0,0,1-1.73,3l-73.72,42.55c-1,.56-1.73.11-1.73-1v-.69A3.86,3.86,0,0,1,115.94,294.9Z" style="fill:#e0e0e0"></path><path d="M115.94,306.62l73.72-42.56c1-.55,1.73-.11,1.73,1v.69a3.85,3.85,0,0,1-1.73,3l-73.72,42.56c-1,.55-1.73.1-1.73-1v-.69A3.83,3.83,0,0,1,115.94,306.62Z" style="fill:#e0e0e0"></path><path d="M115.94,318.33l73.72-42.56c1-.55,1.73-.1,1.73,1v.69a3.85,3.85,0,0,1-1.73,3L115.94,323c-1,.55-1.73.1-1.73-1v-.69A3.83,3.83,0,0,1,115.94,318.33Z" style="fill:#e0e0e0"></path><polygon points="114.67 178.68 150.22 158.16 150.22 199.21 114.67 219.73 114.67 178.68" style="fill:#42A5F5"></polygon><path d="M120,182.79V195.1l1.12-.66v-3.78a7.84,7.84,0,0,1,3.79-6l5.25-3V200a7.87,7.87,0,0,1-3.3,6.28l-3.3,1.91v1.31l17.77-10.26V197.9l-3.3,1.91c-1.82,1.05-3.3-.06-3.3-2.47V179l5.25-3c2.1-1.21,3.79-.5,3.79,1.58v3.78l1.12-.63V168.42Z" style="fill:#fafafa"></path></g></g></g><g id="freepik--Photocopier--inject-2"><g id="freepik--photocopier--inject-2"><polygon points="161.62 369.62 231.51 409.97 340.24 347.2 270.34 306.85 161.62 369.62" style="fill:#263238"></polygon><path d="M231.52,410l-69.9-40.35v6.57a4.62,4.62,0,0,0,2.07,3.59l9.58,5.53v-4.49L216,405.48V410l13.47,7.77a4.14,4.14,0,0,0,4.14,0h0l-2.07-1.2Z" style="fill:#37474f"></path><path d="M340.23,347.2v6.58a4.56,4.56,0,0,1-2.06,3.58l-9.58,5.53v-4.48l-81.54,47.07V410l-13.46,7.77c-1.15.66-2.07.12-2.07-1.2V410Z" style="fill:#455a64"></path><polygon points="173.27 385.31 177.16 383.07 173.27 380.82 173.27 385.31" style="fill:#263238"></polygon><polygon points="328.59 362.89 324.7 360.65 328.59 358.41 328.59 362.89" style="fill:#37474f"></polygon><path d="M338.13,345.39a4.8,4.8,0,0,0,2.16-3.75v-44.4l-69.05-39.87L253,267.92v46.9l69,39.87Z" style="fill:#42A5F5"></path><path d="M338.13,345.39a4.8,4.8,0,0,0,2.16-3.75v-44.4l-69.05-39.87L253,267.92v46.9l69,39.87Z" style="fill:#fff;opacity:0.7000000000000001"></path><polygon points="252.97 267.92 252.97 314.82 322.02 354.69 322.02 307.79 252.97 267.92" style="fill:#42A5F5"></polygon><polygon points="252.97 267.92 252.97 314.82 322.02 354.69 322.02 307.79 252.97 267.92" style="opacity:0.30000000000000004"></polygon><polygon points="252.97 267.92 271.24 257.37 340.29 297.24 322.02 307.79 252.97 267.92" style="fill:#42A5F5"></polygon><polygon points="252.97 267.92 271.24 257.37 340.29 297.24 322.02 307.79 252.97 267.92" style="opacity:0.15"></polygon><polygon points="169.69 369.94 214.37 395.74 214.37 386.36 169.69 360.56 169.69 369.94" style="fill:#42A5F5"></polygon><polygon points="169.69 369.94 214.37 395.74 214.37 386.36 169.69 360.56 169.69 369.94" style="opacity:0.15"></polygon><path d="M232.78,406.21l85-49.09a4.8,4.8,0,0,0,2.16-3.75V341.8l-69.05-39.87-89.36,51.59V365.1a4.78,4.78,0,0,0,2.17,3.75l6,3.44v-7l44.68,25.8v7l14.08,8.13A4.73,4.73,0,0,0,232.78,406.21Z" style="fill:#42A5F5"></path><path d="M232.78,406.21l85-49.09a4.8,4.8,0,0,0,2.16-3.75V341.8l-69.05-39.87-89.36,51.59V365.1a4.78,4.78,0,0,0,2.17,3.75l6,3.44v-7l44.68,25.8v7l14.08,8.13A4.73,4.73,0,0,0,232.78,406.21Z" style="fill:#fff;opacity:0.5"></path><polygon points="230.62 393.39 319.98 341.8 250.93 301.93 161.56 353.52 230.62 393.39" style="fill:#42A5F5"></polygon><polygon points="230.62 393.39 319.98 341.8 250.93 301.93 161.56 353.52 230.62 393.39" style="opacity:0.15"></polygon><path d="M320,341.8v14.07l-87.2,50.34c-1.19.69-2.16.13-2.16-1.25V393.39Z" style="fill:#42A5F5"></path><path d="M320,341.8v14.07l-87.2,50.34c-1.19.69-2.16.13-2.16-1.25V393.39Z" style="fill:#fff;opacity:0.7000000000000001"></path><polygon points="169.69 372.29 171.72 371.11 171.72 366.42 169.69 365.25 169.69 372.29" style="fill:#42A5F5"></polygon><polygon points="169.69 372.29 171.72 371.11 171.72 366.42 169.69 365.25 169.69 372.29" style="opacity:0.35000000000000003"></polygon><path d="M240.77,392.22c1.13-.65,2-.12,2,1.17a4.49,4.49,0,0,1-2,3.52c-1.13.65-2,.12-2-1.17A4.49,4.49,0,0,1,240.77,392.22Z" style="fill:#455a64"></path><path d="M311.86,351.18v2.34c0,1.3-1.94,3.47-4.33,4.85l-52.27,30.18c-2.39,1.38-4.33,1.45-4.33.15v-2.34Z" style="fill:#455a64"></path><path d="M232.78,389.8l85-49.1A4.8,4.8,0,0,0,320,337V325.38l-69.05-39.87-89.36,51.6v11.57a4.78,4.78,0,0,0,2.17,3.75l64.72,37.37A4.79,4.79,0,0,0,232.78,389.8Z" style="fill:#42A5F5"></path><path d="M232.78,389.8l85-49.1A4.8,4.8,0,0,0,320,337V325.38l-69.05-39.87-89.36,51.6v11.57a4.78,4.78,0,0,0,2.17,3.75l64.72,37.37A4.79,4.79,0,0,0,232.78,389.8Z" style="fill:#fff;opacity:0.5"></path><polygon points="230.62 376.98 319.98 325.38 250.93 285.51 161.56 337.11 230.62 376.98" style="fill:#42A5F5"></polygon><polygon points="230.62 376.98 319.98 325.38 250.93 285.51 161.56 337.11 230.62 376.98" style="opacity:0.15"></polygon><path d="M320,325.38v14.07l-87.2,50.35c-1.19.69-2.16.12-2.16-1.25V377Z" style="fill:#42A5F5"></path><path d="M320,325.38v14.07l-87.2,50.35c-1.19.69-2.16.12-2.16-1.25V377Z" style="fill:#fff;opacity:0.7000000000000001"></path><path d="M240.77,375.8c1.13-.64,2-.12,2,1.18a4.47,4.47,0,0,1-2,3.51c-1.13.65-2,.13-2-1.17A4.51,4.51,0,0,1,240.77,375.8Z" style="fill:#455a64"></path><path d="M311.86,334.76v2.35c0,1.29-1.94,3.46-4.33,4.84l-52.27,30.18c-2.39,1.38-4.33,1.45-4.33.16v-2.35Z" style="fill:#455a64"></path><path d="M232.78,373.38l85-49.09a4.8,4.8,0,0,0,2.16-3.75V309L250.93,269.1l-89.36,51.59v11.57a4.78,4.78,0,0,0,2.17,3.75l64.72,37.37A4.79,4.79,0,0,0,232.78,373.38Z" style="fill:#42A5F5"></path><path d="M232.78,373.38l85-49.09a4.8,4.8,0,0,0,2.16-3.75V309L250.93,269.1l-89.36,51.59v11.57a4.78,4.78,0,0,0,2.17,3.75l64.72,37.37A4.79,4.79,0,0,0,232.78,373.38Z" style="fill:#fff;opacity:0.5"></path><polygon points="230.62 360.56 319.98 308.97 250.93 269.1 161.56 320.69 230.62 360.56" style="fill:#42A5F5"></polygon><polygon points="230.62 360.56 319.98 308.97 250.93 269.1 161.56 320.69 230.62 360.56" style="opacity:0.15"></polygon><path d="M320,309V323l-87.2,50.34c-1.19.69-2.16.13-2.16-1.25V360.56Z" style="fill:#42A5F5"></path><path d="M320,309V323l-87.2,50.34c-1.19.69-2.16.13-2.16-1.25V360.56Z" style="fill:#fff;opacity:0.7000000000000001"></path><path d="M240.77,359.39c1.13-.65,2-.12,2,1.17a4.49,4.49,0,0,1-2,3.52c-1.13.65-2,.12-2-1.17A4.49,4.49,0,0,1,240.77,359.39Z" style="fill:#455a64"></path><path d="M311.86,318.35v2.34c0,1.3-1.94,3.47-4.33,4.85l-52.27,30.17c-2.39,1.39-4.33,1.45-4.33.16v-2.35Z" style="fill:#455a64"></path><polygon points="230.62 358.21 340.29 294.89 340.29 243.3 271.24 203.43 161.56 266.75 161.56 318.35 230.62 358.21" style="fill:#42A5F5"></polygon><polygon points="230.62 358.21 340.29 294.89 340.29 243.3 271.24 203.43 161.56 266.75 161.56 318.35 230.62 358.21" style="fill:#fff;opacity:0.7000000000000001"></polygon><polygon points="340.29 243.3 230.62 306.62 161.56 266.75 271.24 203.43 340.29 243.3" style="fill:#263238"></polygon><polygon points="230.62 325.38 230.62 358.21 161.56 318.35 161.56 285.51 230.62 325.38" style="fill:#42A5F5"></polygon><polygon points="230.62 325.38 230.62 358.21 161.56 318.35 161.56 285.51 230.62 325.38" style="fill:#fff;opacity:0.5"></polygon><polygon points="161.56 266.75 161.56 285.51 230.62 325.38 230.62 306.62 161.56 266.75" style="fill:#37474f"></polygon><path d="M230.62,306.62l97.49-56.29v14.08a8.12,8.12,0,0,1-4.06,7l-93.43,53.94Z" style="fill:#455a64"></path><path d="M324.05,264.41c0-1.3-.91-1.82-2-1.18a4.51,4.51,0,0,0-2,3.52c0,1.3.91,1.82,2,1.17A4.47,4.47,0,0,0,324.05,264.41Z" style="fill:#fafafa"></path><path d="M313.76,268l-11.92,6.88a4.64,4.64,0,0,0-2.17,3.6c0,1.29,1,1.78,2.17,1.09l11.92-6.88a4.65,4.65,0,0,0,2.16-3.59C315.92,267.8,315,267.31,313.76,268Z" style="fill:#fafafa"></path><path d="M340.29,233.92v7l-12.18,7v-7a40.64,40.64,0,0,0-20.32-35.18l-48.74-28.14,12.19-7L320,198.73A40.63,40.63,0,0,1,340.29,233.92Z" style="fill:#42A5F5"></path><path d="M340.29,233.92v7l-12.18,7v-7a40.64,40.64,0,0,0-20.32-35.18l-48.74-28.14,12.19-7L320,198.73A40.63,40.63,0,0,1,340.29,233.92Z" style="fill:#fff;opacity:0.7000000000000001"></path><path d="M230.62,297.24v7l-69.06-39.86V233.92l48.75,28.14A40.63,40.63,0,0,1,230.62,297.24Z" style="fill:#37474f"></path><path d="M328.11,241v7l-97.49,56.28v-7a40.64,40.64,0,0,0-20.32-35.19l-48.74-28.14,97.49-56.28,48.74,28.14A40.64,40.64,0,0,1,328.11,241Z" style="fill:#455a64"></path><polygon points="177.81 353.52 177.81 318.35 179.84 317.17 208.28 333.59 208.28 368.77 206.25 369.94 177.81 353.52" style="fill:#42A5F5"></polygon><polygon points="177.81 353.52 177.81 318.35 179.84 317.17 208.28 333.59 208.28 368.77 206.25 369.94 177.81 353.52" style="opacity:0.15"></polygon><polygon points="177.81 353.52 177.81 318.35 206.25 334.76 206.25 369.94 177.81 353.52" style="fill:#42A5F5"></polygon><polygon points="177.81 353.52 177.81 318.35 206.25 334.76 206.25 369.94 177.81 353.52" style="fill:#fff;opacity:0.6000000000000001"></polygon><polygon points="179.84 317.17 177.81 318.35 206.25 334.76 208.28 333.59 179.84 317.17" style="fill:#42A5F5"></polygon><polygon points="179.84 317.17 177.81 318.35 206.25 334.76 208.28 333.59 179.84 317.17" style="fill:#fff;opacity:0.8"></polygon><path d="M291.31,208.28a1,1,0,0,0-.61-.86l-29.44-17a3.22,3.22,0,0,0-3,0l-43.32,25a1,1,0,0,0-.61.85v1.35a1,1,0,0,0,.61.84l29.44,17a3.28,3.28,0,0,0,3,0l43.32-25a1.05,1.05,0,0,0,.61-.85Z" style="fill:#ebebeb"></path><path d="M215,215.44l43.32-25a3.22,3.22,0,0,1,3,0l29.44,17a.9.9,0,0,1,0,1.71l-43.32,25a3.28,3.28,0,0,1-3,0l-29.44-17A.91.91,0,0,1,215,215.44Z" style="fill:#fff"></path><path d="M245.9,234.49v1.34a3,3,0,0,1-1.48-.36l-29.43-17a1.06,1.06,0,0,1-.62-.86v-1.34a1,1,0,0,0,.62.85l29.43,17A3,3,0,0,0,245.9,234.49Z" style="fill:#42A5F5"></path><path d="M291.31,206.19a1,1,0,0,0-.61-.86l-29.44-17a3.28,3.28,0,0,0-3,0l-43.32,25a1,1,0,0,0-.61.85v1.35a1.05,1.05,0,0,0,.61.85l29.44,17a3.28,3.28,0,0,0,3,0l43.32-25a1,1,0,0,0,.61-.84Z" style="fill:#ebebeb"></path><path d="M215,213.35l43.32-25a3.28,3.28,0,0,1,3,0l29.44,17c.82.48.82,1.24,0,1.71l-43.32,25a3.22,3.22,0,0,1-3,0l-29.44-17A.91.91,0,0,1,215,213.35Z" style="fill:#fff"></path><path d="M245.9,232.41v1.33a3,3,0,0,1-1.48-.35L215,216.4a1.06,1.06,0,0,1-.62-.85V214.2a1,1,0,0,0,.62.86l29.43,17A3,3,0,0,0,245.9,232.41Z" style="fill:#42A5F5"></path><path d="M173.75,231.57l44.68,25.8,52.81-30.49V212.81L226.56,187l-40.62,23.46a24.35,24.35,0,0,0-12.19,21.1Z" style="fill:#455a64"></path><path d="M271.24,212.81l-40.62,23.45a24.39,24.39,0,0,0-12.19,21.11h0l52.81-30.49Z" style="fill:#263238"></path><path d="M221.7,245.18a24.27,24.27,0,0,0-3.27,12.18h0l-44.68-25.8A24.41,24.41,0,0,1,177,219.38Z" style="fill:#37474f"></path><polygon points="194.06 215.16 226.56 196.39 250.93 210.47 218.43 229.23 194.06 215.16" style="fill:#37474f"></polygon><polygon points="196.09 216.33 218.43 229.23 248.9 211.64 226.56 198.74 196.09 216.33" style="fill:#42A5F5"></polygon><polygon points="226.56 196.39 226.56 198.74 196.09 216.33 194.06 215.16 226.56 196.39" style="fill:#263238"></polygon><path d="M218.09,225.49l-1-.6c-.33-.19-.33-.49,0-.68l3.24-1.88a1.31,1.31,0,0,1,1.19,0l1,.6c.33.19.33.49,0,.68l-3.25,1.88A1.36,1.36,0,0,1,218.09,225.49Z" style="opacity:0.4"></path><path d="M224.74,221.65l-1-.6a.36.36,0,0,1,0-.68l3.25-1.88a1.36,1.36,0,0,1,1.18,0l1,.6a.36.36,0,0,1,0,.68l-3.25,1.88A1.29,1.29,0,0,1,224.74,221.65Z" style="opacity:0.4"></path><path d="M231.38,217.81l-1-.59a.36.36,0,0,1,0-.69l3.25-1.87a1.29,1.29,0,0,1,1.18,0l1,.59a.36.36,0,0,1,0,.69l-3.25,1.87A1.29,1.29,0,0,1,231.38,217.81Z" style="opacity:0.4"></path><path d="M238,214l-1-.6a.36.36,0,0,1,0-.68l3.25-1.88a1.29,1.29,0,0,1,1.18,0l1,.6a.36.36,0,0,1,0,.68L239.21,214A1.36,1.36,0,0,1,238,214Z" style="opacity:0.4"></path><g style="opacity:0.4"><path d="M206,215.83a11.3,11.3,0,0,1,2.18-.81l.4.54-1.13.24a3.19,3.19,0,0,0-1,.34c-1,.6-.58,1.49,1.28,2.56s3.41,1.34,4.43.74a1.85,1.85,0,0,0,.62-.54l.38-.67,1,.24a6.3,6.3,0,0,1-1.39,1.25l-.17.1a6.36,6.36,0,0,1-6.11-.36c-2-1.18-2.28-2.59-.64-3.54Z"></path><path d="M217.81,212.87c2,1.18,2.25,2.61.55,3.6a6.45,6.45,0,0,1-6.22-.32c-2-1.17-2.24-2.6-.53-3.58A6.41,6.41,0,0,1,217.81,212.87Zm-4.41,2.56c1.85,1.07,3.47,1.27,4.64.6.88-.51.37-1.36-1.47-2.42s-3.47-1.28-4.63-.61C211.06,213.51,211.57,214.37,213.4,215.43Z"></path><path d="M218.68,208.59a5.11,5.11,0,0,1,4.93-.19c1.47.85,1.41,2-.17,2.94l-1.36.78,1.82,1-1.21.7-6.57-3.8Zm2.88,3.23,1.1-.63c1.07-.62,1-1.34-.3-2.07a3.27,3.27,0,0,0-3.42-.08l-1.1.64Z"></path><path d="M222.29,206.53l1.21-.83,5.56,1-.26-.51a8,8,0,0,0-1.93-2.46l1.12-.51,1.83,3.46,2.65,1.53-1.2.7-2.21-1.27Z"></path></g><polygon points="171.45 278.78 216.13 304.57 216.13 310.27 171.45 284.47 171.45 278.78" style="fill:#263238"></polygon><polygon points="214.37 307.68 214.37 334.76 173.75 311.31 173.75 284.82 214.37 307.68" style="opacity:0.15"></polygon><path d="M214.37,305.07l-40.62-23.45L127.41,295c-.71.21-1.07.55-1.07.93v2.6c0,.33.27.69.83,1l36.29,20.95a6.7,6.7,0,0,0,4.57.55l46.34-13.37Z" style="fill:#37474f"></path><path d="M214.37,305.07,168,318.45a6.7,6.7,0,0,1-4.57-.55l-36.29-21c-1.2-.69-1.09-1.56.24-1.94l46.34-13.38Z" style="fill:#455a64"></path><path d="M165.62,318.56v2.61a6.23,6.23,0,0,1-2.16-.67l-36.29-20.95c-.56-.33-.84-.69-.83-1v-2.6c0,.33.27.69.83,1l36.29,21A5.83,5.83,0,0,0,165.62,318.56Z" style="fill:#263238"></path><path d="M205.37,300c0-.16-.14-.34-.42-.5l-26.27-15.17a3.4,3.4,0,0,0-2.28-.28L135.88,295.8c-.36.11-.54.28-.54.47v1.94c0,.16.14.34.42.5L162,313.88a3.4,3.4,0,0,0,2.28.28l40.52-11.76c.35-.1.53-.26.54-.45Z" style="fill:#ebebeb"></path><path d="M204.83,300.47l-40.52,11.75a3.34,3.34,0,0,1-2.28-.28l-26.27-15.16c-.6-.35-.55-.78.12-1l40.52-11.75a3.4,3.4,0,0,1,2.28.28L205,299.5C205.55,299.84,205.49,300.28,204.83,300.47Z" style="fill:#fafafa"></path><path d="M205.37,300V302c0,.18-.19.35-.53.45l-40.52,11.75a2.67,2.67,0,0,1-1,.07V312.3a2.89,2.89,0,0,0,1-.08l40.52-11.75C205.19,300.36,205.37,300.19,205.37,300Z" style="fill:#f0f0f0"></path></g></g><g id="freepik--Character--inject-2"><g id="freepik--character--inject-2"><rect x="417.09" y="324.87" width="9.35" height="16.67" style="fill:#ffa8a7"></rect><polygon points="394.02 323.98 384.68 324.31 384.21 306.67 394.02 306.33 394.02 323.98" style="fill:#ffa8a7"></polygon><path d="M427.76,180.51c0,9.3-.23,84.49-.23,84.49.22,2.68,1.49,7.27,1,17.55-.7,14-1.65,50.65-1.65,50.65a11.85,11.85,0,0,1-10.41.22s-8.84-50.82-10.52-64.66C404.45,256.68,402,216,402,216L396.9,263.3a57.79,57.79,0,0,1,1.16,15.48c-.44,6.4-3.45,39.73-3.45,39.73a12.32,12.32,0,0,1-10.79.86s-6.9-50.48-7-56.36c-.12-6.69,2.71-82.6,2.71-82.6Z" style="fill:#455a64"></path><path d="M417.09,336.73v-1.39c-.89.4-3,8.67-6.68,12.19-3,2.8-7,6-8,9.16s5.6,5.05,8.36,4.54c3.2-.59,8.75-2.94,10.14-5.12s2-5.39,3.18-7,3.74-3.38,4.35-5.22c.34-1-.06-3.24-.53-5.12-.43-1.72-.9-3.61-1.47-3.45v1.06a7.27,7.27,0,0,1-4.67,1.65C420.4,338.1,417.08,337.82,417.09,336.73Z" style="fill:#263238"></path><path d="M384.58,321.31c-.49,0-.89.73-2,1.94a20.4,20.4,0,0,1-5.5,4.12c-3.5,1.82-10.31,4.63-13.39,6.08-1.92.9-1.83,3.32.16,4.7s6.79,2.37,12.56,1c3.14-.73,7.23-3.76,9.82-3.59s7.43.12,9.34-1.25,1.15-4.3.61-6.82c-.59-2.75-1.33-7-2.2-6.85v.95c-1.12,1.77-6.93,2.5-9.39,1.19Z" style="fill:#263238"></path><path d="M402,216a34.34,34.34,0,0,1-13-7.78s2.52,4.9,10,9.46l-1.6,42.22Z" style="fill:#263238"></path><path d="M394.18,126c-8.59-1.56-12.93-.49-16.6,6.75-3.18,6.26-10.69,22.64-11.4,26.08-.64,3.08,5,22.68,5,22.68L385.28,180l-4.69-17.6,9.4-18.74Z" style="fill:#455a64"></path><path d="M423.13,132.19s10.26,1.32,8,15.9l-3.08,18.51.05,33.32c-6.88,7.8-43.59,4.61-49.44-9.56,0,0,.93-29.33,1.64-44.51.5-10.79,4.41-21.76,16.41-19.52l12.1,1.52Z" style="fill:#42A5F5"></path><polygon points="402.11 137.09 400.44 148.8 396.22 146.86 400.94 149.43 402.11 137.09" style="opacity:0.1"></polygon><path d="M411.61,99.57a13.67,13.67,0,0,1-13.39,13.94c-7.39,0-13.05-6.25-13.38-13.94-.59-13.61,6-13.94,13.38-13.94A13.67,13.67,0,0,1,411.61,99.57Z" style="fill:#263238"></path><path d="M419.7,94.17c-1.57-2.44-3-2.07-3-2.07l-1,11.86-1.65.33-.14,16a4.61,4.61,0,0,0,2-2.17c.55-1.11,1.74-7.88,2.4-11.94C418.26,106.19,421,96.26,419.7,94.17Z" style="fill:#263238"></path><path d="M414.21,107c.78.48,1.88-1.07,2.84-2.11s4.08-2.47,5.63,1-1.37,8.09-3.83,8.89c-4.23,1.38-4.87-1.45-4.87-1.45l-.32,15.91c-5.63,8.7-18.36,8.39-13.78-.42v-4.84a25.67,25.67,0,0,1-5.71.31c-3.11-.5-5.07-3.06-6-6.57-1.51-5.64-2.09-10.2-.8-21.29,1.41-12.16,15-12.28,22.31-7.48S414.21,107,414.21,107Z" style="fill:#ffa8a7"></path><path d="M413.73,125.58a20.49,20.49,0,0,1-5.51,6.9,15.57,15.57,0,0,1-6.66,2.83,14.7,14.7,0,0,1,4.7,5.28c1.4,3.09,11.39-4.05,11.3-10.09,0,0-1.65-7.44-3.77-7.83Z" style="fill:#455a64"></path><path d="M401.56,135.31s-3.05-1.52-1.68-6.59v-4.84l-1.34.18a11.76,11.76,0,0,0-3.21,5.57c-.31,1.39-1.06,8.41.28,9.81S398.83,135.69,401.56,135.31Z" style="fill:#455a64"></path><path d="M393.59,95.48c6.3.16,10.21-1.17,15.42-1.78a1.83,1.83,0,0,1,1,.07c1.15.52,1.4,4.09,1.6,5.13.69,3.48,1.25,9.38,2.56,9.41.39,0,1.87-2.55,2.84-3.47,1.34-1.27-.39-12.74-.39-12.74-.06-.4.3-1.12.32-1.56a5.43,5.43,0,0,0-.82-2.91,8.89,8.89,0,0,0-4.67-3.81c-3.53-1.38-7.4-1.21-10.91-2.78a29.08,29.08,0,0,0-4.19-1.89,4.3,4.3,0,0,0-4.29.88A5.3,5.3,0,0,0,391,82.82a7.42,7.42,0,0,0-2.62-2.46c-2.05-.91-4.59.37-5.65,2.35a8.72,8.72,0,0,0-.24,6.55,8.16,8.16,0,0,0,.87,2C385.31,94.4,390.19,95.39,393.59,95.48Z" style="fill:#263238"></path><path d="M416.65,92.7l4.69-2.62a2.53,2.53,0,0,0-3.55-1.22A3,3,0,0,0,416.65,92.7Z" style="fill:#263238"></path><path d="M399.89,123.88s6.95-1.46,9.38-2.8a8.11,8.11,0,0,0,3.36-3.47,11.55,11.55,0,0,1-1.91,4.09c-1.77,2.37-10.83,4.11-10.83,4.11Z" style="fill:#f28f8f"></path><path d="M401.56,105.14a1.4,1.4,0,1,0,1.39-1.51A1.46,1.46,0,0,0,401.56,105.14Z" style="fill:#263238"></path><path d="M403.3,99.8l3,1.71a1.89,1.89,0,0,0-.7-2.47A1.63,1.63,0,0,0,403.3,99.8Z" style="fill:#263238"></path><path d="M400.52,115.16l-3.18,1.25a1.65,1.65,0,0,0,2.16,1.1A1.89,1.89,0,0,0,400.52,115.16Z" style="fill:#f28f8f"></path><path d="M389.05,101.63l2.71-2.18a1.6,1.6,0,0,0-2.36-.38A1.93,1.93,0,0,0,389.05,101.63Z" style="fill:#263238"></path><path d="M390,104.73a1.4,1.4,0,1,0,1.4-1.51A1.45,1.45,0,0,0,390,104.73Z" style="fill:#263238"></path><polygon points="397.43 103.56 397.27 112.36 392.27 111.22 397.43 103.56" style="fill:#f28f8f"></polygon><g id="freepik--character--inject-2"><polygon points="345.69 200.01 388.1 224.54 388.1 198.52 345.69 173.99 345.69 200.01" style="fill:#e0e0e0"></polygon><polygon points="417.5 207.56 388.1 224.54 388.1 198.52 417.5 181.55 417.5 207.56" style="fill:#f0f0f0"></polygon><polygon points="345.69 173.99 375.09 157.02 417.5 181.55 388.1 198.53 345.69 173.99" style="fill:#fafafa"></polygon></g><polygon points="367.79 195.5 388.1 207.23 400.29 200.19 388.1 207.95 367.79 195.5" style="opacity:0.1"></polygon><polygon points="355.6 195.02 388.1 213.78 412.47 199.71 388.1 214.49 355.6 195.02" style="opacity:0.1"></polygon><path d="M349.77,183.64a23.26,23.26,0,0,0-.34,5.72s5.32-.13,14.3,2.34Z" style="opacity:0.1"></path><polygon points="349.77 183.64 363.73 191.7 348.28 187.25 349.77 183.64" style="fill:#fafafa"></polygon><path d="M367.79,206.13l15.3,14.07s.43-1.93,3.37-3.29Z" style="opacity:0.1"></path><polygon points="367.79 206.13 382.16 218.23 386.46 216.91 367.79 206.13" style="fill:#fafafa"></polygon><path d="M412.6,191.89l-.13-.19-9.67,5.59,10.89-.9A6.62,6.62,0,0,0,412.6,191.89Z" style="opacity:0.1"></path><polygon points="402.8 197.29 412.47 191.7 415.69 193.4 402.8 197.29" style="fill:#fafafa"></polygon><g style="opacity:0.30000000000000004"><path d="M353.16,175.8a.39.39,0,0,1-.33-.19.37.37,0,0,1,.14-.51L377.34,161a.39.39,0,0,1,.52.14.37.37,0,0,1-.14.51l-24.37,14.07A.45.45,0,0,1,353.16,175.8Z" style="fill:#455a64"></path><path d="M357.22,178.15a.37.37,0,0,1-.32-.19.36.36,0,0,1,.13-.51l24.38-14.07a.37.37,0,0,1,.51.13.37.37,0,0,1-.14.51L357.41,178.1A.45.45,0,0,1,357.22,178.15Z" style="fill:#455a64"></path><path d="M361.28,180.49a.37.37,0,0,1-.32-.19.38.38,0,0,1,.14-.51l24.37-14.07a.37.37,0,1,1,.37.65l-24.37,14.07A.32.32,0,0,1,361.28,180.49Z" style="fill:#455a64"></path><path d="M365.35,182.84a.39.39,0,0,1-.33-.19.37.37,0,0,1,.14-.51l24.37-14.07a.37.37,0,1,1,.37.64l-24.37,14.08A.37.37,0,0,1,365.35,182.84Z" style="fill:#455a64"></path><path d="M369.41,185.18a.39.39,0,0,1-.33-.19.38.38,0,0,1,.14-.51l24.37-14.07a.39.39,0,0,1,.52.14.37.37,0,0,1-.14.51L369.6,185.13A.34.34,0,0,1,369.41,185.18Z" style="fill:#455a64"></path><path d="M373.47,187.53a.37.37,0,0,1-.32-.19.36.36,0,0,1,.13-.51l24.37-14.07a.38.38,0,0,1,.52.13.39.39,0,0,1-.14.52l-24.37,14.07A.45.45,0,0,1,373.47,187.53Z" style="fill:#455a64"></path><path d="M377.53,189.87a.36.36,0,0,1-.32-.18.38.38,0,0,1,.13-.52l24.38-14.07a.37.37,0,1,1,.37.65l-24.37,14.07A.32.32,0,0,1,377.53,189.87Z" style="fill:#455a64"></path><path d="M381.59,192.22a.38.38,0,0,1-.32-.19.37.37,0,0,1,.14-.51l24.37-14.07a.37.37,0,0,1,.51.13.38.38,0,0,1-.14.52l-24.37,14.07A.41.41,0,0,1,381.59,192.22Z" style="fill:#455a64"></path><path d="M385.66,194.56a.38.38,0,0,1-.33-.18.39.39,0,0,1,.14-.52l24.37-14.07a.37.37,0,0,1,.51.14.36.36,0,0,1-.13.51l-24.38,14.07A.31.31,0,0,1,385.66,194.56Z" style="fill:#455a64"></path></g><path d="M426.22,133.36c3.39.88,6.39,1.87,8.62,6.28,2.86,5.65,15.23,35.69,14.84,38-.7,4.13-18.47,21.51-24.21,28.15-3.8,4.39-10.93,8.58-17.06,10.64-5.39,1.8-6.09-.09-6.09-.09l11.27-6.51c.65-.44,2.07-2.08.4-2.09-1.35,0-2.7.16-4.05.05a5.67,5.67,0,0,1-3.23-1,1,1,0,0,1-.43-.63.89.89,0,0,1,.25-.65,3,3,0,0,1,1.07-.49,11,11,0,0,1,1.27-.39c.86-.21,1.75-.37,2.6-.63,1.35-.41,2.58-.71,3.57-1a5.86,5.86,0,0,0,3.23-2.56c2.08-2.88,3.5-5.24,4.22-6.35,2.13-3.29,9.83-15,12.05-18.48l-11.85-21.93C418.83,148,420.6,133.36,426.22,133.36Z" style="fill:#ffa8a7"></path><path d="M423.65,132.3s6.44,1.52,8.43,3.12,3.48,3.91,7,12,9.78,25.24,10.59,27.58,1.18,3.63-2.93,8.35c-3,3.4-7,7.11-7,7.11s-7.49-1-9.57-8.15l3.79-6.75s-11.19-19.78-12.61-24A21.49,21.49,0,0,1,423.65,132.3Z" style="fill:#455a64"></path></g></g></svg>
